<svg width="200" height="200" viewBox="0 0 200 200" xmlns="http://www.w3.org/2000/svg"><rect x="10" y="10" width="180" height="180" fill="none" stroke="#ff69b4" stroke-width="12" rx="24"/><path d="M 100,25 C 100,15 90,10 80,15 C 70,20 80,35 100,45 C 120,35 130,20 120,15 C 110,10 100,15 100,25" fill="#ff1493"/><path d="M 30,175 C 30,165 20,160 10,165 C 0,170 10,185 30,195 C 50,185 60,170 50,165 C 40,160 30,165 30,175" fill="#ff1493"/><path d="M 170,175 C 170,165 160,160 150,165 C 140,170 150,185 170,195 C 190,185 200,170 190,165 C 180,160 170,165 170,175" fill="#ff1493"/></svg>