<svg width="200" height="200" viewBox="0 0 200 200" xmlns="http://www.w3.org/2000/svg"><circle cx="100" cy="100" r="90" fill="none" stroke="#ff69b4" stroke-width="14"/><path d="M 100,25 C 100,15 90,10 80,15 C 70,20 80,35 100,45 C 120,35 130,20 120,15 C 110,10 100,15 100,25" fill="#ff1493"/><path d="M 40,175 C 40,165 30,160 20,165 C 10,170 20,185 40,195 C 60,185 70,170 60,165 C 50,160 40,165 40,175" fill="#ff1493"/><path d="M 160,175 C 160,165 150,160 140,165 C 130,170 140,185 160,195 C 180,185 190,170 180,165 C 170,160 160,165 160,175" fill="#ff1493"/></svg>